<svg width="900" height="700" viewBox="0 0 900 700" fill="none" xmlns="http://www.w3.org/2000/svg">
  <style>@keyframes grow{0%,100%{transform:scaleY(.45)}50%{transform:scaleY(1)}}@keyframes float{0%,100%{transform:translateY(0)}50%{transform:translateY(-12px)}}.bar{animation:grow 3.4s ease-in-out infinite;transform-origin:bottom}.float{animation:float 6.5s ease-in-out infinite;transform-origin:center}</style>
  <defs><linearGradient id="bg" x1="116" y1="84" x2="770" y2="616" gradientUnits="userSpaceOnUse"><stop stop-color="#E0F2FE"/><stop offset=".55" stop-color="#EEF2FF"/><stop offset="1" stop-color="#DCFCE7"/></linearGradient><linearGradient id="accent" x1="230" y1="130" x2="680" y2="560" gradientUnits="userSpaceOnUse"><stop stop-color="#0EA5E9"/><stop offset=".58" stop-color="#6366F1"/><stop offset="1" stop-color="#10B981"/></linearGradient></defs>
  <path d="M748 168C835 282 797 486 653 591C509 696 280 676 156 540C32 404 82 188 239 92C396 -4 661 54 748 168Z" fill="url(#bg)" fill-opacity=".86"/>
  <g class="float"><rect x="200" y="132" width="500" height="392" rx="48" fill="white" fill-opacity=".94"/><rect x="244" y="184" width="412" height="62" rx="24" fill="url(#accent)"/><rect x="270" y="304" width="92" height="148" rx="24" fill="#E0F2FE"/><rect x="404" y="304" width="92" height="148" rx="24" fill="#EEF2FF"/><rect x="538" y="304" width="92" height="148" rx="24" fill="#ECFDF5"/><rect class="bar" x="296" y="364" width="40" height="68" rx="20" fill="#0EA5E9"/><rect class="bar" x="430" y="336" width="40" height="96" rx="20" fill="#6366F1" style="animation-delay:.4s"/><rect class="bar" x="564" y="324" width="40" height="108" rx="20" fill="#10B981" style="animation-delay:.8s"/></g>
</svg>
